<svg width="75" height="72" viewBox="0 0 75 72" fill="none" xmlns="http://www.w3.org/2000/svg">
<path d="M70.9 47.7H60.3H15.6H5.1C2.8 47.7 1 49.6 1 52V55.5C1 57.9 2.9 59.7999 5.1 59.7999H6V60.9C6 66.4 10.3 71 15.6 71H60.2C65.5 71 69.8 66.5 69.8 60.9V59.7999H70.7C73 59.7999 74.8 57.9 74.8 55.5V52C75 49.7 73.1 47.7 70.9 47.7ZM67 60.9C67 64.8 64 67.9 60.3 67.9H15.6C11.9 67.9 8.9 64.7 8.9 60.9V59.7999H67V60.9ZM72.1 55.5C72.1 56.2 71.5 56.7999 70.9 56.7999H69.9H67H9H6H5C4.3 56.7999 3.8 56.2 3.8 55.5V52C3.8 51.3 4.4 50.7 5 50.7H8.7H15.6H60.2H67.1H70.8C71.5 50.7 72 51.3 72 52C72.1 52 72.1 55.5 72.1 55.5Z" fill="#81B3D2"/>
<path d="M16.6 39.4L22 43.5L27.3 39.4L32.6 43.5L37.9 39.4L43.3 43.5L48.6 39.4L53.9 43.5L59.3 39.4L64.6 43.5L70.8 38.8L69.1 36.3L64.6 39.7L59.3 35.6L53.9 39.7L48.6 35.6L43.3 39.7L37.9 35.6L32.6 39.7L27.3 35.6L22 39.7L16.6 35.6L11.3 39.7L6.79998 36.3L5.09998 38.8L11.3 43.5L16.6 39.4Z" fill="#81B3D2"/>
<path d="M9 32.5H66.9H69.8C69.8 31.9 69.9 31.3 69.9 30.6C69.9 30.2 69.9 29.8 69.9 29.4C69.2 13.7 55.2 1 38 1C20.7 1 6.7 13.7 6 29.5C6 29.9 6 30.3 6 30.7C6 31.3 6 32 6.1 32.6H9V32.5ZM38 4C53.6 4 66.4 15.3 67 29.5H9C9.6 15.4 22.4 4 38 4Z" fill="#81B3D2"/>
<path d="M38 18.3C39.0493 18.3 39.9 17.4046 39.9 16.3C39.9 15.1955 39.0493 14.3 38 14.3C36.9506 14.3 36.1 15.1955 36.1 16.3C36.1 17.4046 36.9506 18.3 38 18.3Z" fill="#81B3D2"/>
<path d="M30.2 13.2C31.2493 13.2 32.1 12.3045 32.1 11.2C32.1 10.0954 31.2493 9.19995 30.2 9.19995C29.1506 9.19995 28.3 10.0954 28.3 11.2C28.3 12.3045 29.1506 13.2 30.2 13.2Z" fill="#81B3D2"/>
<path d="M45.7 13.2C46.7493 13.2 47.6 12.3045 47.6 11.2C47.6 10.0954 46.7493 9.19995 45.7 9.19995C44.6506 9.19995 43.8 10.0954 43.8 11.2C43.8 12.3045 44.6506 13.2 45.7 13.2Z" fill="#81B3D2"/>
</svg>
