<svg width="55" height="55" viewBox="0 0 55 55" fill="none" xmlns="http://www.w3.org/2000/svg">
<rect width="55" height="55" fill="#E5E5E5"/>
<g id="&#208;&#161;&#209;&#130;&#209;&#128;&#208;&#176;&#208;&#189;&#208;&#184;&#209;&#134;&#208;&#176; &#208;&#186;&#208;&#176;&#209;&#130;&#208;&#176;&#208;&#187;&#208;&#190;&#208;&#179;&#208;&#176;" clip-path="url(#clip0_0_1)">
<rect width="1280" height="2103" transform="translate(-363 -1478)" fill="#F2F2F2"/>
<g id="&#208;&#164;&#208;&#190;&#208;&#189;" filter="url(#filter0_d_0_1)">
<rect x="-323" y="-1478" width="1200" height="2103" fill="white"/>
</g>
<g id="&#208;&#159;&#208;&#176;&#208;&#179;&#208;&#184;&#208;&#189;&#208;&#176;&#209;&#134;&#208;&#184;&#209;&#143;">
<g id="...">
<rect id="Rectangle 57" width="55" height="55" rx="4" fill="#83B3D3"/>
<path id="..._2" d="M20.7033 32.68C20.7033 32.2133 20.8499 31.8467 21.1433 31.58C21.4366 31.3 21.8233 31.16 22.3033 31.16C22.8099 31.16 23.2099 31.3 23.5033 31.58C23.7966 31.8467 23.9433 32.2133 23.9433 32.68C23.9433 33.1467 23.7966 33.52 23.5033 33.8C23.2099 34.08 22.8099 34.22 22.3033 34.22C21.8233 34.22 21.4366 34.08 21.1433 33.8C20.8499 33.52 20.7033 33.1467 20.7033 32.68ZM25.8791 32.68C25.8791 32.2133 26.0257 31.8467 26.3191 31.58C26.6124 31.3 26.9991 31.16 27.4791 31.16C27.9857 31.16 28.3857 31.3 28.6791 31.58C28.9724 31.8467 29.1191 32.2133 29.1191 32.68C29.1191 33.1467 28.9724 33.52 28.6791 33.8C28.3857 34.08 27.9857 34.22 27.4791 34.22C26.9991 34.22 26.6124 34.08 26.3191 33.8C26.0257 33.52 25.8791 33.1467 25.8791 32.68ZM31.0548 32.68C31.0548 32.2133 31.2015 31.8467 31.4948 31.58C31.7882 31.3 32.1748 31.16 32.6548 31.16C33.1615 31.16 33.5615 31.3 33.8548 31.58C34.1482 31.8467 34.2948 32.2133 34.2948 32.68C34.2948 33.1467 34.1482 33.52 33.8548 33.8C33.5615 34.08 33.1615 34.22 32.6548 34.22C32.1748 34.22 31.7882 34.08 31.4948 33.8C31.2015 33.52 31.0548 33.1467 31.0548 32.68Z" fill="white"/>
</g>
</g>
</g>
<defs>
<filter id="filter0_d_0_1" x="-338" y="-1493" width="1230" height="2133" filterUnits="userSpaceOnUse" color-interpolation-filters="sRGB">
<feFlood flood-opacity="0" result="BackgroundImageFix"/>
<feColorMatrix in="SourceAlpha" type="matrix" values="0 0 0 0 0 0 0 0 0 0 0 0 0 0 0 0 0 0 127 0" result="hardAlpha"/>
<feOffset/>
<feGaussianBlur stdDeviation="7.5"/>
<feColorMatrix type="matrix" values="0 0 0 0 0 0 0 0 0 0 0 0 0 0 0 0 0 0 0.2 0"/>
<feBlend mode="normal" in2="BackgroundImageFix" result="effect1_dropShadow_0_1"/>
<feBlend mode="normal" in="SourceGraphic" in2="effect1_dropShadow_0_1" result="shape"/>
</filter>
<clipPath id="clip0_0_1">
<rect width="1280" height="2103" fill="white" transform="translate(-363 -1478)"/>
</clipPath>
</defs>
</svg>
