<svg width="61" height="72" viewBox="0 0 61 72" fill="none" xmlns="http://www.w3.org/2000/svg">
<path d="M57.5793 21.5516H57.4862H34.5014C47.3432 15.1307 48.3668 11.0363 47.9015 8.80293C46.7848 5.0807 42.5973 2.28902 38.5959 3.77792C33.3848 5.73209 31.9889 13.4557 30.5931 19.0391C28.732 13.3627 27.057 6.19737 22.9625 2.56819C21.7528 1.54457 20.0778 0.427904 17.5653 0.707072C13.843 1.0793 8.44581 5.73209 10.5861 10.9432C12.7264 15.9682 19.6125 19.1321 24.1722 21.6446H3.69996H3.42079C1.93189 21.6446 0.722168 22.8544 0.722168 24.3433V34.8586C0.722168 36.3475 1.93189 37.5572 3.42079 37.5572H3.69996V68.5448V70.7781V71.3365H57.4862V70.8712V68.5448V37.4641H57.5793C59.0682 37.4641 60.2779 36.2544 60.2779 34.7655V24.2502C60.2779 22.7613 59.0682 21.5516 57.5793 21.5516ZM40.1779 6.10431C42.132 5.82514 44.8306 7.31404 45.1098 9.0821C45.482 11.6877 41.9459 14.0141 40.364 15.0377C38.0376 16.6196 35.8042 17.4571 33.5709 18.853C34.4084 15.4099 35.8973 6.7557 40.1779 6.10431ZM18.8681 15.4099C16.8208 14.0141 12.8194 11.3154 12.9125 8.15154C13.0055 4.80153 18.2167 2.00985 21.1014 4.52236C24.7306 7.68626 26.4056 14.8516 27.7084 19.9696C24.7306 18.5738 21.8458 17.3641 18.8681 15.4099ZM24.4514 68.5448H6.39858V37.4641H24.4514V68.5448ZM24.4514 34.5794H3.51384V24.3433H24.4514V34.5794ZM33.9431 34.5794V37.3711V68.5448H27.2431V37.4641V34.6725V24.4363H33.9431V34.5794ZM54.6946 68.5448H36.6417V37.4641H54.6946V68.5448ZM57.3932 34.5794H36.6417V24.3433H57.3932V34.5794Z" fill="#81B3D2"/>
</svg>
